<svg width="19" height="19" viewBox="0 0 19 19" fill="none" xmlns="http://www.w3.org/2000/svg">
<g clip-path="url(#clip0_17076_11616)">
<path d="M6.05259 1.18384H1.30811V5.95985H6.05259V1.18384Z" fill="#4F78BA"/>
<path d="M12.1762 1.18384H7.42969V5.95985H12.1762V1.18384Z" fill="#4F78BA"/>
<path d="M18.2992 1.18384H13.5527V5.95985H18.2992V1.18384Z" fill="#4F78BA"/>
<path d="M6.05259 7.3606H1.30811V12.1368H6.05259V7.3606Z" fill="#4F78BA"/>
<path d="M12.1762 7.3606H7.42969V12.1368H12.1762V7.3606Z" fill="#4F78BA"/>
<path d="M18.2992 7.3606H13.5527V12.1368H18.2992V7.3606Z" fill="#4F78BA"/>
<path d="M6.05259 13.5381H1.30811V18.3145H6.05259V13.5381Z" fill="#4F78BA"/>
<path d="M12.1762 13.5381H7.42969V18.3145H12.1762V13.5381Z" fill="#4F78BA"/>
<path d="M18.2992 13.5381H13.5527V18.3145H18.2992V13.5381Z" fill="#4F78BA" fill-opacity="0.5"/>
</g>
<defs>
<clipPath id="clip0_17076_11616">
<rect width="18" height="18" fill="white" transform="translate(0.500488 0.575684)"/>
</clipPath>
</defs>
</svg>
