<svg width="18" height="18" fill="none" xmlns="http://www.w3.org/2000/svg"><path d="M7.384 11.297c-.541.15-.95.532-1.152.787-.085.11-.123.29-.19.412-.029.054-.422.814-.776 1.041-.39.248-.744.302-.933.692a.845.845 0 0 0-.084.492c.036.25.2.486.536.633.56.244 2.566.02 3.684-1.36.323-.336.467-.813.525-1.25.121-.913-.722-1.695-1.61-1.447Z" fill="#32ABF2"/><path d="M6.059 11.314c.016-.024.033-.048.05-.078.026-.045.052-.097.081-.152a15.79 15.79 0 0 1-1.02-.742l-.042-.032.002-.002c-.039-.031-.077-.06-.116-.093-.086.02-.168.045-.246.074-.486.182-.812.508-1.044.758-.078.083-.144.157-.205.216a3.064 3.064 0 0 1-.855.574l-.098.06c-.58.355-.55.92-.486 1.136.063.217.308.8 1.127.786.635-.011 1.326-.349 1.605-.5 0 0 1.183-.76 1.623-1.67 0 0-.15-.13-.376-.335Z" fill="#32ABF2"/><path d="M4.277 9.305a9.738 9.738 0 0 1-.474-.707c-.112.03-.252.077-.406.155-.368.189-.745.292-.969.205-.223-.087-.715-.307-1.065-.057s-.462.707-.27 1.046c.167.29.597.75 1.084.936 0 0 1.117.535 2.402-.58 1.106-.959.186-1.009-.302-.998Z" fill="#32ABF2"/><path d="M9 13.022A5.386 5.386 0 1 0 9 2.25a5.386 5.386 0 0 0 0 10.772Z" fill="#32ABF2"/><path d="M10.616 11.297c.54.15.95.532 1.151.787.086.11.124.29.19.412.03.054.423.814.777 1.041.39.248.743.302.932.692a.845.845 0 0 1 .084.492c-.035.25-.2.486-.536.633-.56.244-2.565.02-3.683-1.36-.324-.336-.467-.813-.526-1.25-.12-.913.723-1.695 1.611-1.447Z" fill="#32ABF2"/><path d="M11.94 11.314c-.016-.024-.032-.048-.049-.078a4.247 4.247 0 0 1-.081-.152c.408-.26.995-.722 1.02-.742l.042-.032-.002-.002c.039-.031.077-.06.115-.093.086.02.169.045.246.074.486.182.813.508 1.045.758.077.083.144.157.204.216.333.322.698.504.856.574l.098.06c.58.355.55.92.486 1.136-.064.217-.308.8-1.128.786-.634-.011-1.325-.349-1.605-.5 0 0-1.183-.76-1.623-1.67 0 0 .15-.13.377-.335Z" fill="#32ABF2"/><path d="M13.723 9.305a9.782 9.782 0 0 0 .474-.707c.112.03.252.077.406.155.368.189.745.292.969.205.223-.087.715-.307 1.065-.057s.462.707.27 1.046c-.167.29-.598.75-1.084.936 0 0-1.117.535-2.402-.58-1.106-.959-.186-1.009.302-.998Z" fill="#32ABF2"/><path d="M7.144 7.986c.261 0 .474-.27.474-.603 0-.333-.213-.603-.474-.603-.262 0-.474.27-.474.603 0 .333.212.603.474.603Z" fill="#34056F"/><path d="M7.333 7.125a.215.215 0 1 1-.43 0 .215.215 0 0 1 .43 0Z" fill="#F9F9F9"/><path d="M10.856 7.986c.262 0 .475-.27.475-.603 0-.333-.213-.603-.475-.603-.261 0-.474.27-.474.603 0 .333.213.603.474.603Z" fill="#34056F"/><path d="M11.046 7.125a.215.215 0 1 1-.429 0 .215.215 0 0 1 .43 0Z" fill="#F9F9F9"/><path d="M9.872 9.24c-.046.544-.229 1.237-.872 1.237-.317 0-.523-.169-.654-.405.16-.343.583-.952 1.526-.833Z" fill="#EB5A55"/><path d="M9.871 9.24c-.943-.12-1.366.49-1.526.831-.309-.552-.217-1.473-.217-1.473.26.112.872.089.872.089s.611.023.872-.09c0 0 .03.29 0 .642Z" fill="#79292A"/></svg>