<svg width="159" height="48" fill="none" xmlns="http://www.w3.org/2000/svg"><g clip-path="url(#a)"><path d="M19.69 30.124c-1.442.403-2.532 1.42-3.07 2.1-.228.292-.33.772-.506 1.1-.078.143-1.127 2.17-2.071 2.775-1.042.662-1.983.806-2.488 1.846a2.253 2.253 0 0 0-.223 1.31c.094.668.532 1.298 1.43 1.689 1.491.651 6.84.055 9.821-3.629.864-.894 1.246-2.166 1.402-3.332.322-2.435-1.927-4.519-4.295-3.859Z" fill="#32ABF2"/><path d="M16.157 30.172c.044-.066.087-.129.133-.21.07-.12.14-.258.216-.404-1.087-.692-2.653-1.925-2.721-1.98l-.11-.084.004-.006c-.102-.083-.205-.16-.308-.248-.229.055-.45.12-.656.197-1.295.485-2.167 1.356-2.785 2.02-.207.223-.384.42-.546.578a8.175 8.175 0 0 1-2.281 1.53l-.26.162c-1.549.946-1.467 2.45-1.297 3.029.17.578.821 2.133 3.006 2.094 1.693-.03 3.536-.93 4.28-1.334 0 0 3.154-2.023 4.328-4.45.002-.001-.399-.348-1.003-.894Z" fill="#32ABF2"/><path d="M11.406 24.813a25.919 25.919 0 0 1-1.264-1.885c-.3.079-.673.206-1.082.414-.983.503-1.987.777-2.584.546-.597-.231-1.909-.82-2.841-.153-.932.666-1.234 1.887-.718 2.79.443.775 1.59 1.998 2.888 2.496 0 0 2.979 1.426 6.404-1.545 2.952-2.558.499-2.692-.803-2.663Z" fill="#32ABF2"/><path d="M24 34.726c7.932 0 14.363-6.43 14.363-14.363C38.363 12.43 31.933 6 24 6 16.068 6 9.637 12.43 9.637 20.363c0 7.932 6.43 14.363 14.363 14.363Z" fill="#32ABF2"/><path d="M28.31 30.124c1.441.403 2.53 1.42 3.07 2.1.227.292.329.772.505 1.1.078.143 1.127 2.17 2.071 2.775 1.042.662 1.983.806 2.488 1.846.203.416.287.873.223 1.31-.094.668-.532 1.298-1.429 1.689-1.492.651-6.84.055-9.822-3.629-.864-.894-1.246-2.166-1.401-3.332-.322-2.435 1.927-4.519 4.294-3.859Z" fill="#32ABF2"/><path d="M31.842 30.172c-.043-.066-.087-.129-.133-.21-.069-.12-.14-.258-.216-.404 1.087-.692 2.653-1.925 2.722-1.98l.11-.084-.005-.006c.103-.083.205-.16.307-.248.23.055.45.12.656.197 1.296.485 2.167 1.356 2.786 2.02.206.223.384.42.546.578a8.173 8.173 0 0 0 2.28 1.53l.261.162c1.549.946 1.467 2.45 1.297 3.029-.17.578-.822 2.133-3.007 2.094-1.692-.03-3.535-.93-4.28-1.334 0 0-3.154-2.023-4.328-4.45 0-.001.4-.348 1.004-.894Z" fill="#32ABF2"/><path d="M36.593 24.813a25.919 25.919 0 0 0 1.265-1.885c.3.079.673.206 1.082.414.983.503 1.987.777 2.584.546.596-.231 1.909-.82 2.841-.153.932.666 1.234 1.887.718 2.79-.443.775-1.59 1.998-2.888 2.496 0 0-2.979 1.426-6.404-1.545-2.951-2.558-.499-2.692.803-2.663Z" fill="#32ABF2"/><path d="M19.05 21.297c.698 0 1.264-.72 1.264-1.609 0-.888-.566-1.608-1.264-1.608-.699 0-1.265.72-1.265 1.608 0 .889.566 1.609 1.265 1.609Z" fill="#34056F"/><path d="M19.555 19a.572.572 0 1 1-1.145 0 .572.572 0 0 1 1.145 0Z" fill="#F9F9F9"/><path d="M28.95 21.297c.699 0 1.265-.72 1.265-1.609 0-.888-.566-1.608-1.265-1.608-.698 0-1.264.72-1.264 1.608 0 .889.566 1.609 1.264 1.609Z" fill="#34056F"/><path d="M29.456 19a.572.572 0 1 1-1.144 0 .572.572 0 0 1 1.144 0Z" fill="#F9F9F9"/><path d="M26.324 24.638c-.12 1.451-.609 3.3-2.324 3.3-.847 0-1.394-.45-1.745-1.08.426-.913 1.555-2.538 4.07-2.22Z" fill="#EB5A55"/><path d="M26.324 24.638c-2.515-.318-3.643 1.307-4.07 2.219-.824-1.472-.58-3.93-.58-3.93.694.299 2.326.238 2.326.238s1.63.06 2.326-.237c0 0 .077.773-.002 1.71Z" fill="#79292A"/><path d="M72.88 40.48c-2.8 0-5.347-.667-7.64-2-2.267-1.333-4.04-3.173-5.32-5.52-1.28-2.347-1.92-4.973-1.92-7.88s.64-5.533 1.92-7.88c1.28-2.347 3.053-4.173 5.32-5.48 2.267-1.333 4.813-2 7.64-2 2.053 0 3.933.36 5.64 1.08 1.707.693 3.147 1.64 4.32 2.84 1.2 1.173 2.067 2.48 2.6 3.92l-4.88 2.28a7.738 7.738 0 0 0-2.92-3.72c-1.333-.96-2.92-1.44-4.76-1.44-1.84 0-3.48.44-4.92 1.32-1.44.853-2.56 2.067-3.36 3.64-.773 1.573-1.16 3.387-1.16 5.44 0 2.053.387 3.867 1.16 5.44.8 1.573 1.92 2.8 3.36 3.68 1.44.88 3.08 1.32 4.92 1.32 1.84 0 3.427-.467 4.76-1.4a7.965 7.965 0 0 0 2.92-3.76l4.88 2.28c-.533 1.44-1.4 2.76-2.6 3.96-1.173 1.173-2.613 2.12-4.32 2.84-1.707.693-3.587 1.04-5.64 1.04ZM88.617 9.72h5.24v12.8l-.72-.76c.506-1.307 1.32-2.293 2.44-2.96 1.146-.693 2.52-1.04 4.12-1.04 1.573 0 2.986.347 4.24 1.04a7.332 7.332 0 0 1 2.92 2.92c.693 1.253 1.04 2.68 1.04 4.28v14h-5.24V27.24c0-.933-.187-1.747-.56-2.44-.374-.72-.894-1.267-1.56-1.64-.667-.4-1.427-.6-2.28-.6-1.307 0-2.374.427-3.2 1.28-.8.853-1.2 1.987-1.2 3.4V40h-5.24V9.72Zm29.511 30.76c-1.52 0-2.84-.253-3.96-.76s-1.987-1.227-2.6-2.16c-.614-.96-.92-2.067-.92-3.32 0-1.84.626-3.347 1.88-4.52 1.253-1.2 3.133-2.013 5.64-2.44l7.12-1.16v4l-6.12 1.04c-1.04.187-1.814.52-2.32 1-.507.48-.76 1.107-.76 1.88 0 .747.28 1.347.84 1.8.56.427 1.28.64 2.16.64 1.066 0 2.026-.227 2.88-.68a4.955 4.955 0 0 0 1.96-1.96 5.32 5.32 0 0 0 .72-2.72v-5.6c0-.933-.374-1.707-1.12-2.32-.72-.64-1.68-.96-2.88-.96-1.12 0-2.107.293-2.96.88-.854.587-1.494 1.387-1.92 2.4l-4.28-2.08c.64-1.707 1.813-3.08 3.52-4.12 1.706-1.04 3.653-1.56 5.84-1.56 1.76 0 3.32.333 4.68 1 1.386.64 2.453 1.547 3.2 2.72.773 1.173 1.16 2.52 1.16 4.04V40h-4.96v-3.72l1.12-.08c-.854 1.413-1.947 2.48-3.28 3.2-1.307.72-2.854 1.08-4.64 1.08Zm25.923 0c-2.08 0-3.96-.493-5.64-1.48-1.654-1.013-2.96-2.387-3.92-4.12s-1.44-3.653-1.44-5.76c0-2.107.48-4.013 1.44-5.72a10.883 10.883 0 0 1 3.96-4.12c1.68-1.013 3.533-1.52 5.56-1.52 1.653 0 3.12.333 4.4 1 1.306.64 2.333 1.547 3.08 2.72l-.8 1.08V9.72h5.24V40h-4.96v-4.2l.56 1.04c-.747 1.147-1.787 2.04-3.12 2.68-1.307.64-2.76.96-4.36.96Zm.56-4.8c1.173 0 2.213-.28 3.12-.84a5.671 5.671 0 0 0 2.16-2.32c.533-1.013.8-2.147.8-3.4 0-1.227-.267-2.347-.8-3.36-.507-1.013-1.227-1.8-2.16-2.36-.907-.56-1.947-.84-3.12-.84-1.174 0-2.227.293-3.16.88a5.938 5.938 0 0 0-2.2 2.32c-.507.987-.76 2.107-.76 3.36 0 1.253.253 2.387.76 3.4a5.938 5.938 0 0 0 2.2 2.32c.933.56 1.986.84 3.16.84Z" fill="#000"/></g><defs><clipPath id="a"><path fill="#fff" d="M0 0h159v48H0z"/></clipPath></defs></svg>