<svg width="19" height="19" viewBox="0 0 19 19" fill="none" xmlns="http://www.w3.org/2000/svg">
<g clip-path="url(#clip0_17076_11630)">
<path d="M18.2789 14.0435C16.783 14.8784 15.0436 15.2959 13.339 15.2611C8.01651 15.1915 3.80721 10.8778 3.91158 5.69449C3.94636 3.9899 4.46818 2.32009 5.37266 0.893799C2.45049 2.49403 0.571963 5.55534 0.502388 8.89495C0.398025 14.0783 4.60733 18.3572 9.92983 18.4616C13.2694 18.5659 16.4351 16.8961 18.2789 14.0435Z" fill="#1F3244"/>
<path d="M13.235 14.1479H13.409C14.8005 14.1479 16.1572 13.8 17.3748 13.1738C19.6707 9.20803 18.3488 4.12903 14.383 1.83305C13.1307 1.10251 11.7044 0.719847 10.2433 0.685059C8.85179 0.685059 7.46028 1.03294 6.24271 1.6939C5.47739 2.91147 5.05994 4.33776 5.02515 5.76405C4.99036 10.356 8.64306 14.1131 13.235 14.1479Z" fill="#0073EC"/>
</g>
<defs>
<clipPath id="clip0_17076_11630">
<rect width="18" height="18" fill="white" transform="translate(0.500488 0.575684)"/>
</clipPath>
</defs>
</svg>
