<svg width="19" height="17" viewBox="0 0 19 17" fill="none" xmlns="http://www.w3.org/2000/svg">
<path d="M4.64799 0.734678C3.31202 1.00091 2.22865 1.70141 1.50728 2.77669C1.05935 3.4384 0.767684 4.21902 0.587992 5.19608C0.442155 6.02322 0.47861 7.17863 0.697365 8.2901C1.04112 10.0452 2.0073 11.9192 3.37191 13.483C4.33808 14.5867 6.00478 15.6827 7.40064 16.1299C8.80432 16.5822 10.3799 16.5538 11.7783 16.0601C12.6351 15.7576 13.807 15.0778 14.5831 14.442C15.0024 14.0982 15.8774 13.2142 15.9165 13.0927C15.9269 13.0591 16.005 12.9531 16.0857 12.8497C17.0701 11.64 17.8618 10.0219 18.1952 8.546C18.44 7.46555 18.5572 6.33598 18.4738 5.91724C18.4452 5.79059 18.3879 5.4649 18.3462 5.19608C17.992 2.91627 16.6977 1.37055 14.6586 0.80964C14.3435 0.726926 14.169 0.711416 13.3539 0.711416C12.4841 0.706246 12.3747 0.716586 11.9086 0.832903C11.1455 1.02418 10.3304 1.35763 9.65331 1.75827L9.48924 1.85649L8.94755 1.57733C8.26004 1.21546 7.78868 1.03193 7.11679 0.856165C6.6324 0.734679 6.49177 0.716586 5.72873 0.703662C5.26518 0.693322 4.7808 0.711415 4.64799 0.734678ZM6.55168 2.33986C6.91887 2.41482 7.35638 2.56214 7.80431 2.75342L8.07254 2.87491L7.56992 3.39187C7.29127 3.6762 7.03346 3.96312 6.99179 4.03032C6.95013 4.09753 6.77564 4.33791 6.60116 4.57055C5.97875 5.40803 5.44748 6.37476 5.09851 7.31563C5.01258 7.5431 4.92403 7.75763 4.90059 7.78606C4.84069 7.86878 4.73653 8.24616 4.59329 8.89754C4.4761 9.46103 4.46569 9.58251 4.46569 10.6656C4.46048 11.5832 4.4787 11.8882 4.53599 12.1182C4.57766 12.2811 4.60111 12.4103 4.58288 12.4103C4.54122 12.4051 3.99432 11.7357 3.7313 11.3583C2.53075 9.64972 1.90833 7.41644 2.14531 5.64842C2.23125 5.02031 2.49949 4.18283 2.7521 3.76926C3.08544 3.20577 3.77816 2.64227 4.39016 2.43032C4.9683 2.22353 5.80166 2.19252 6.55168 2.33986ZM14.3227 2.36312C16.1482 2.84648 17.1274 4.82904 16.7941 7.34665C16.6092 8.73728 16.1248 9.99867 15.3123 11.2187C15.0154 11.6607 14.4138 12.4181 14.3852 12.3922C14.3748 12.3819 14.3982 12.1932 14.4373 11.9631C14.5961 10.9912 14.5701 9.94956 14.3487 8.85101C14.2368 8.29786 14.0154 7.525 13.9529 7.47847C13.9399 7.46554 13.8539 7.27944 13.7654 7.05973C13.6768 6.84002 13.5258 6.50141 13.4216 6.30238C13.2341 5.925 13.1143 5.83195 12.932 5.90174C12.8747 5.91983 12.1039 6.3851 11.2132 6.93566C10.3226 7.48364 9.51008 7.97734 9.4007 8.02904C9.29653 8.08073 9.18455 8.15828 9.15069 8.19705C9.05173 8.31336 9.11684 8.61062 9.28351 8.83809C9.36424 8.94923 9.49966 9.14568 9.59081 9.27492C9.74706 9.50238 9.8356 9.57217 9.96321 9.57217C10.0153 9.57217 11.0934 8.91046 11.932 8.35731C12.1482 8.21773 12.3513 8.08332 12.3851 8.06781C12.4555 8.02645 12.5961 8.45812 12.7575 9.22064C13.1117 10.9137 12.8331 12.6119 12.0284 13.6639C11.7419 14.0413 11.3408 14.3567 10.8851 14.5712C10.3825 14.809 9.94238 14.8866 9.31737 14.8607C8.4137 14.8142 7.85379 14.5712 7.21836 13.9431C6.88502 13.6122 6.77563 13.4649 6.61937 13.147C5.97353 11.8158 5.89019 10.5053 6.3277 8.74504C7.01001 5.98186 9.24183 3.40738 11.7185 2.52854C12.0284 2.42257 12.5935 2.29074 12.9659 2.24421C13.268 2.21061 13.9711 2.27007 14.3227 2.36312Z" fill="black"/>
</svg>
