<svg width="19" height="11" viewBox="0 0 19 11" fill="none" xmlns="http://www.w3.org/2000/svg">
<g clip-path="url(#clip0_17076_11599)">
<path d="M16.8128 0.70166C16.18 0.70166 15.6315 1.0449 15.3433 1.54603L15.3081 1.61468L13.9862 4.15466L12.3128 7.37425L13.4097 9.48175L13.4729 9.59845C13.6417 9.88677 13.8948 10.127 14.2042 10.2712C14.5136 10.1202 14.7667 9.88677 14.9355 9.59845L14.9987 9.48175L18.2823 3.16613L18.3597 3.0151C18.4511 2.80916 18.5003 2.58948 18.5003 2.34921C18.5003 1.43619 17.748 0.70166 16.8128 0.70166ZM6.68076 3.76336L5.59092 1.66273L5.52764 1.54603C5.35889 1.25771 5.10576 1.01744 4.79639 0.87328C4.48701 1.02431 4.23389 1.25771 4.06514 1.54603L4.00889 1.66273L0.725293 7.97835L0.647949 8.12938C0.556543 8.33532 0.507324 8.555 0.507324 8.79527C0.507324 9.70142 1.25967 10.4428 2.19482 10.4428C2.82764 10.4428 3.37607 10.0996 3.66436 9.59845L3.69951 9.5298L5.02139 6.98982L6.68779 3.77023L6.68076 3.76336Z" fill="#FF5000"/>
<path d="M16.813 0.70166C16.1802 0.70166 15.6247 1.0449 15.3435 1.54603L15.3083 1.61468L13.9864 4.15466L12.313 7.37425L13.4099 9.48175L13.4731 9.59845C13.6419 9.88677 13.895 10.127 14.2044 10.2712C14.5138 10.1202 14.7669 9.88677 14.9356 9.59845L14.9989 9.48175L18.2825 3.16613L18.3599 3.0151C18.4513 2.80916 18.5005 2.58948 18.5005 2.34921C18.5005 1.43619 17.7411 0.70166 16.813 0.70166Z" fill="url(#paint0_linear_17076_11599)"/>
<path d="M2.18799 10.4428C2.8208 10.4428 3.37627 10.0996 3.65752 9.59846L3.69268 9.52981L5.01455 6.98983L6.68799 3.77024L5.59111 1.66274L5.52783 1.54604C5.35908 1.25772 5.10596 1.01745 4.79658 0.873291C4.48721 1.02432 4.23408 1.25772 4.06533 1.54604L4.00908 1.66274L0.725488 7.97836L0.641113 8.13625C0.549707 8.3422 0.500488 8.56187 0.500488 8.80214C0.500488 9.70829 1.25283 10.4428 2.18799 10.4428Z" fill="url(#paint1_linear_17076_11599)"/>
<path d="M6.68076 3.76336L5.59092 1.66273L5.52764 1.54603C5.35889 1.25771 5.10576 1.01744 4.79639 0.87328C4.89482 0.825227 5.00732 0.784038 5.11279 0.756579C5.24639 0.722255 5.39404 0.70166 5.53467 0.70166H7.84092C8.47373 0.708525 9.02217 1.0449 9.31045 1.54603L9.35967 1.66273L12.3198 7.38112L13.4097 9.48175L13.4729 9.59845C13.6417 9.88677 13.8948 10.127 14.2042 10.2712C14.1058 10.3193 13.9933 10.3604 13.8878 10.3879C13.7542 10.4222 13.6065 10.4428 13.4589 10.4428H11.1667C10.5339 10.436 9.98545 10.0996 9.69717 9.59845L9.63389 9.48175L6.68076 3.76336Z" fill="#FF8C44"/>
</g>
<defs>
<linearGradient id="paint0_linear_17076_11599" x1="94.7429" y1="909.281" x2="782.438" y2="307.328" gradientUnits="userSpaceOnUse">
<stop stop-color="#D4202C"/>
<stop offset="0.04166" stop-color="#D82D2B" stop-opacity="0.958"/>
<stop offset="0.176" stop-color="#E25226" stop-opacity="0.824"/>
<stop offset="0.3167" stop-color="#EB7123" stop-opacity="0.683"/>
<stop offset="0.4635" stop-color="#F28920" stop-opacity="0.536"/>
<stop offset="0.6188" stop-color="#F69A1E" stop-opacity="0.381"/>
<stop offset="0.7886" stop-color="#F9A41D" stop-opacity="0.211"/>
<stop offset="1" stop-color="#FAA71D" stop-opacity="0"/>
</linearGradient>
<linearGradient id="paint1_linear_17076_11599" x1="536.486" y1="49.1038" x2="-151.215" y2="651.075" gradientUnits="userSpaceOnUse">
<stop stop-color="#D4202C"/>
<stop offset="0.04166" stop-color="#D82D2B" stop-opacity="0.958"/>
<stop offset="0.176" stop-color="#E25226" stop-opacity="0.824"/>
<stop offset="0.3167" stop-color="#EB7123" stop-opacity="0.683"/>
<stop offset="0.4635" stop-color="#F28920" stop-opacity="0.536"/>
<stop offset="0.6188" stop-color="#F69A1E" stop-opacity="0.381"/>
<stop offset="0.7886" stop-color="#F9A41D" stop-opacity="0.211"/>
<stop offset="1" stop-color="#FAA71D" stop-opacity="0"/>
</linearGradient>
<clipPath id="clip0_17076_11599">
<rect width="18" height="9.75" fill="white" transform="translate(0.500488 0.700684)"/>
</clipPath>
</defs>
</svg>
