<svg width="65" height="65" fill="none" xmlns="http://www.w3.org/2000/svg"><g clip-path="url(#a)"><path d="M48.385 17.715a.449.449 0 0 0-.424-.386c-.193 0-3.586-.077-3.586-.077s-2.853-2.776-3.123-3.046-.848-.193-1.04-.116c0 0-.54.155-1.427.425a11.284 11.284 0 0 0-.694-1.697c-1.002-1.928-2.506-2.969-4.28-2.969-.115 0-.23 0-.385.039-.039-.077-.116-.116-.154-.193-.771-.848-1.774-1.234-2.969-1.195-2.313.077-4.627 1.735-6.477 4.704-1.311 2.082-2.313 4.703-2.622 6.747-2.66.81-4.51 1.388-4.55 1.426-1.349.424-1.387.463-1.541 1.735-.116.964-3.663 28.145-3.663 28.145l29.455 5.089 12.762-3.162c-.039-.038-5.244-35.238-5.282-35.47ZM37.32 14.977c-.694.193-1.465.463-2.275.694 0-1.156-.154-2.814-.694-4.202 1.735.347 2.583 2.313 2.969 3.508Zm-3.856 1.195c-1.542.463-3.238 1.003-4.934 1.504.462-1.812 1.387-3.624 2.467-4.82.424-.424 1.002-.925 1.658-1.233.694 1.35.848 3.238.81 4.55Zm-3.122-6.13c.54 0 1.002.116 1.388.347a7.54 7.54 0 0 0-1.813 1.427c-1.465 1.58-2.583 4.048-3.045 6.4-1.388.424-2.776.848-4.049 1.233.81-3.7 3.933-9.291 7.518-9.407Z" fill="#95BF47"/><path d="M47.96 17.329c-.192 0-3.585-.077-3.585-.077s-2.853-2.776-3.123-3.046c-.115-.116-.231-.154-.385-.193v42.294l12.761-3.161s-5.205-35.2-5.243-35.47a.452.452 0 0 0-.424-.347Z" fill="#5E8E3E"/><path d="m33.773 23.883-1.465 5.552s-1.658-.771-3.624-.617c-2.892.193-2.892 2.005-2.892 2.468.154 2.467 6.67 3.007 7.055 8.828.27 4.588-2.428 7.711-6.323 7.943-4.703.308-7.286-2.468-7.286-2.468l1.002-4.24s2.583 1.966 4.665 1.811c1.35-.077 1.85-1.195 1.812-1.966-.192-3.239-5.513-3.046-5.86-8.366-.27-4.473 2.66-9.022 9.137-9.408 2.506-.192 3.779.463 3.779.463Z" fill="#fff"/></g><defs><clipPath id="a"><path fill="#fff" transform="translate(11.411 8.5)" d="M0 0h42.217v48H0z"/></clipPath></defs></svg>